<svg width="317" height="156" viewBox="0 0 317 156" fill="none" xmlns="http://www.w3.org/2000/svg">
<path d="M0.5 10C0.5 4.7533 4.75329 0.5 10 0.5H307C312.247 0.5 316.5 4.7533 316.5 10V155.5H0.5V10Z" fill="url(#paint0_linear_151_151)" stroke="url(#paint1_linear_151_151)"/>
<path fill-rule="evenodd" clip-rule="evenodd" d="M181.359 90.7529L213.321 122.715C216.25 125.643 216.25 130.392 213.321 133.321C210.392 136.25 205.643 136.25 202.714 133.321L170.722 101.329L170.722 127.193C170.722 131.335 167.364 134.693 163.222 134.693C159.08 134.693 155.722 131.335 155.722 127.193V84.0519C155.722 81.4051 157.093 79.0785 159.164 77.7436C160.501 76.508 162.289 75.7529 164.253 75.7529L207.394 75.7529C211.536 75.7529 214.894 79.1108 214.894 83.2529C214.894 87.3951 211.536 90.7529 207.394 90.7529L181.359 90.7529Z" fill="#E1E3ED"/>
<path d="M213.321 122.715L213.675 122.361L213.321 122.715ZM181.359 90.7529V90.2529H180.152L181.006 91.1065L181.359 90.7529ZM202.714 133.321L203.068 132.968L202.714 133.321ZM170.722 101.329L171.076 100.975L170.222 100.122V101.329H170.722ZM170.722 127.193H171.222H170.722ZM155.722 127.193H155.222H155.722ZM159.164 77.7436L159.435 78.1638L159.471 78.1403L159.503 78.1108L159.164 77.7436ZM164.253 75.7529V75.2529V75.7529ZM207.394 75.7529V75.2529V75.7529ZM207.394 90.7529V91.2529V90.7529ZM213.675 122.361L181.713 90.3994L181.006 91.1065L212.967 123.068L213.675 122.361ZM213.675 133.675C216.799 130.55 216.799 125.485 213.675 122.361L212.967 123.068C215.701 125.802 215.701 130.234 212.967 132.968L213.675 133.675ZM202.361 133.675C205.485 136.799 210.55 136.799 213.675 133.675L212.967 132.968C210.234 135.701 205.802 135.701 203.068 132.968L202.361 133.675ZM170.369 101.682L202.361 133.675L203.068 132.968L171.076 100.975L170.369 101.682ZM171.222 127.193L171.222 101.329H170.222L170.222 127.193H171.222ZM163.222 135.193C167.64 135.193 171.222 131.611 171.222 127.193H170.222C170.222 131.059 167.088 134.193 163.222 134.193V135.193ZM155.222 127.193C155.222 131.611 158.804 135.193 163.222 135.193V134.193C159.356 134.193 156.222 131.059 156.222 127.193H155.222ZM155.222 84.0519V127.193H156.222V84.0519H155.222ZM158.893 77.3234C156.686 78.7464 155.222 81.2281 155.222 84.0519H156.222C156.222 81.582 157.501 79.4105 159.435 78.1638L158.893 77.3234ZM159.503 78.1108C160.752 76.9572 162.419 76.2529 164.253 76.2529V75.2529C162.158 75.2529 160.25 76.0587 158.825 77.3764L159.503 78.1108ZM164.253 76.2529L207.394 76.2529V75.2529L164.253 75.2529V76.2529ZM207.394 76.2529C211.26 76.2529 214.394 79.3869 214.394 83.2529H215.394C215.394 78.8347 211.812 75.2529 207.394 75.2529V76.2529ZM214.394 83.2529C214.394 87.1189 211.26 90.2529 207.394 90.2529V91.2529C211.812 91.2529 215.394 87.6712 215.394 83.2529H214.394ZM207.394 90.2529L181.359 90.2529V91.2529L207.394 91.2529V90.2529Z" fill="#C7C9D8"/>
<mask id="path-4-inside-1_151_151" fill="white">
<path d="M206.297 66.5153C209.322 65.8719 211.28 62.8858 210.338 59.94C207.853 52.1686 203.691 45.0115 198.122 38.987C191.282 31.5876 182.572 26.1709 172.911 23.3079C163.25 20.4449 152.995 20.2418 143.228 22.7199C133.461 25.198 124.543 30.2656 117.416 37.3883C110.288 44.5109 105.214 53.4249 102.729 63.1902C100.245 72.9555 100.441 83.2104 103.297 92.8736C106.153 102.537 111.564 111.25 118.958 118.095C124.979 123.669 132.133 127.835 139.903 130.326C142.848 131.271 145.835 129.315 146.481 126.29C147.126 123.265 145.181 120.323 142.26 119.306C136.455 117.283 131.108 114.08 126.567 109.876C120.651 104.4 116.322 97.4294 114.037 89.6989C111.752 81.9683 111.596 73.7644 113.584 65.9521C115.572 58.1399 119.631 51.0088 125.333 45.3106C131.035 39.6124 138.169 35.5584 145.982 33.5759C153.796 31.5934 162 31.7559 169.729 34.0463C177.458 36.3367 184.426 40.6701 189.898 46.5896C194.098 51.1334 197.297 56.4826 199.316 62.2896C200.332 65.2109 203.272 67.1586 206.297 66.5153Z"/>
</mask>
<path d="M206.297 66.5153C209.322 65.8719 211.28 62.8858 210.338 59.94C207.853 52.1686 203.691 45.0115 198.122 38.987C191.282 31.5876 182.572 26.1709 172.911 23.3079C163.25 20.4449 152.995 20.2418 143.228 22.7199C133.461 25.198 124.543 30.2656 117.416 37.3883C110.288 44.5109 105.214 53.4249 102.729 63.1902C100.245 72.9555 100.441 83.2104 103.297 92.8736C106.153 102.537 111.564 111.25 118.958 118.095C124.979 123.669 132.133 127.835 139.903 130.326C142.848 131.271 145.835 129.315 146.481 126.29C147.126 123.265 145.181 120.323 142.26 119.306C136.455 117.283 131.108 114.08 126.567 109.876C120.651 104.4 116.322 97.4294 114.037 89.6989C111.752 81.9683 111.596 73.7644 113.584 65.9521C115.572 58.1399 119.631 51.0088 125.333 45.3106C131.035 39.6124 138.169 35.5584 145.982 33.5759C153.796 31.5934 162 31.7559 169.729 34.0463C177.458 36.3367 184.426 40.6701 189.898 46.5896C194.098 51.1334 197.297 56.4826 199.316 62.2896C200.332 65.2109 203.272 67.1586 206.297 66.5153Z" stroke="#C7C9D8" stroke-width="2" mask="url(#path-4-inside-1_151_151)"/>
<mask id="path-5-inside-2_151_151" fill="white">
<path d="M177.042 65.9254C179.809 64.3963 180.851 60.8638 178.802 58.4556C177.144 56.5063 175.227 54.7816 173.097 53.3327C169.382 50.8063 165.125 49.1897 160.669 48.6138C156.214 48.0379 151.685 48.5189 147.45 50.0179C143.215 51.5168 139.392 53.9916 136.291 57.242C133.19 60.4925 130.898 64.4273 129.599 68.7281C128.301 73.0289 128.033 77.5749 128.818 81.9983C129.602 86.4218 131.417 90.5985 134.115 94.1904C135.663 96.2503 137.476 98.0847 139.501 99.6493C142.002 101.582 145.482 100.376 146.879 97.5396C148.277 94.7036 147.01 91.3215 144.787 89.0731C144.243 88.5233 143.736 87.9359 143.269 87.3142C141.65 85.159 140.561 82.653 140.091 79.999C139.62 77.3449 139.781 74.6173 140.56 72.0368C141.339 69.4563 142.714 67.0955 144.575 65.1452C146.436 63.1949 148.729 61.7101 151.27 60.8107C153.811 59.9113 156.528 59.6227 159.202 59.9683C161.875 60.3138 164.429 61.2837 166.658 62.7996C167.301 63.2369 167.912 63.716 168.486 64.2331C170.837 66.3476 174.275 67.4545 177.042 65.9254Z"/>
</mask>
<path d="M177.042 65.9254C179.809 64.3963 180.851 60.8638 178.802 58.4556C177.144 56.5063 175.227 54.7816 173.097 53.3327C169.382 50.8063 165.125 49.1897 160.669 48.6138C156.214 48.0379 151.685 48.5189 147.45 50.0179C143.215 51.5168 139.392 53.9916 136.291 57.242C133.19 60.4925 130.898 64.4273 129.599 68.7281C128.301 73.0289 128.033 77.5749 128.818 81.9983C129.602 86.4218 131.417 90.5985 134.115 94.1904C135.663 96.2503 137.476 98.0847 139.501 99.6493C142.002 101.582 145.482 100.376 146.879 97.5396C148.277 94.7036 147.01 91.3215 144.787 89.0731C144.243 88.5233 143.736 87.9359 143.269 87.3142C141.65 85.159 140.561 82.653 140.091 79.999C139.62 77.3449 139.781 74.6173 140.56 72.0368C141.339 69.4563 142.714 67.0955 144.575 65.1452C146.436 63.1949 148.729 61.7101 151.27 60.8107C153.811 59.9113 156.528 59.6227 159.202 59.9683C161.875 60.3138 164.429 61.2837 166.658 62.7996C167.301 63.2369 167.912 63.716 168.486 64.2331C170.837 66.3476 174.275 67.4545 177.042 65.9254Z" stroke="#C7C9D8" stroke-width="2" mask="url(#path-5-inside-2_151_151)"/>
<defs>
<linearGradient id="paint0_linear_151_151" x1="158.5" y1="0" x2="158.5" y2="156" gradientUnits="userSpaceOnUse">
<stop stop-color="#F6F7F9"/>
<stop offset="1" stop-color="#F6F7F9" stop-opacity="0"/>
</linearGradient>
<linearGradient id="paint1_linear_151_151" x1="158.5" y1="0" x2="158.5" y2="156" gradientUnits="userSpaceOnUse">
<stop stop-color="#E1E3ED"/>
<stop offset="1" stop-color="#FBFBFB"/>
</linearGradient>
</defs>
</svg>
