<svg width="177" height="42" viewBox="0 0 177 42" fill="none" xmlns="http://www.w3.org/2000/svg">
<path fill-rule="evenodd" clip-rule="evenodd" d="M21.2866 21.2864C22.1757 20.3973 23.6172 20.3973 24.5063 21.2864L40.3903 37.1703C41.2794 38.0594 41.2794 39.501 40.3903 40.3901C39.5012 41.2792 38.0597 41.2792 37.1706 40.3901L21.2866 24.5061C20.3975 23.617 20.3975 22.1755 21.2866 21.2864Z" fill="#758BFD"/>
<path fill-rule="evenodd" clip-rule="evenodd" d="M22.7669 20.7937C24.0243 20.7937 25.0436 21.813 25.0436 23.0704L25.0436 38.8554C25.0436 40.1128 24.0243 41.1321 22.7669 41.1321C21.5095 41.1321 20.4902 40.1128 20.4902 38.8554L20.4902 23.0704C20.4902 21.813 21.5095 20.7937 22.7669 20.7937Z" fill="#758BFD"/>
<path fill-rule="evenodd" clip-rule="evenodd" d="M20.4902 22.7668C20.4902 21.5094 21.5095 20.4901 22.7669 20.4901L38.552 20.4901C39.8093 20.4901 40.8286 21.5094 40.8286 22.7668C40.8286 24.0242 39.8093 25.0435 38.552 25.0435L22.7669 25.0435C21.5095 25.0435 20.4902 24.0241 20.4902 22.7668Z" fill="#758BFD"/>
<path d="M38.5279 16.6539C39.6348 16.4184 40.3512 15.3259 40.0064 14.248C39.0969 11.4045 37.5742 8.78573 35.5365 6.58137C33.0338 3.87396 29.847 1.892 26.3119 0.84445C22.7769 -0.203103 19.0248 -0.277431 15.451 0.629303C11.8773 1.53604 8.61446 3.39023 6.00648 5.9964C3.3985 8.60257 1.54203 11.8641 0.632813 15.4372C-0.276406 19.0103 -0.204688 22.7625 0.840405 26.2983C1.8855 29.834 3.86524 33.0223 6.57091 35.5269C8.77385 37.5661 11.3916 39.0906 14.2344 40.0021C15.3121 40.3476 16.4051 39.632 16.6413 38.5252C16.8775 37.4185 16.1656 36.342 15.0969 35.9697C12.9727 35.2296 11.0163 34.0576 9.35476 32.5195C7.19023 30.5158 5.60644 27.9652 4.77036 25.1367C3.93429 22.3081 3.87691 19.3063 4.60429 16.4478C5.33166 13.5893 6.81684 10.9801 8.90322 8.89516C10.9896 6.81022 13.5999 5.32687 16.4589 4.60148C19.3178 3.87609 22.3196 3.93556 25.1476 4.7736C27.9756 5.61164 30.5251 7.19721 32.5273 9.36313C34.0641 11.0257 35.2348 12.9829 35.9735 15.1077C36.345 16.1766 37.421 16.8893 38.5279 16.6539Z" fill="#011627"/>
<path d="M27.8235 16.438C28.836 15.8785 29.2172 14.586 28.4677 13.7048C27.8611 12.9916 27.1594 12.3605 26.38 11.8304C25.0208 10.9059 23.463 10.3144 21.8328 10.1037C20.2026 9.89302 18.5456 10.069 16.9961 10.6175C15.4465 11.1659 14.0477 12.0714 12.913 13.2608C11.7783 14.4501 10.9395 15.8898 10.4645 17.4635C9.98941 19.0371 9.89145 20.7005 10.1785 22.319C10.4656 23.9375 11.1296 25.4658 12.1169 26.7801C12.683 27.5337 13.3464 28.2049 14.0873 28.7774C15.0027 29.4847 16.2759 29.0431 16.7872 28.0055C17.2985 26.9678 16.8348 25.7303 16.0216 24.9076C15.8227 24.7065 15.6371 24.4915 15.4663 24.2641C14.8739 23.4755 14.4755 22.5586 14.3032 21.5874C14.131 20.6163 14.1898 19.6183 14.4748 18.6741C14.7598 17.7299 15.2631 16.8661 15.944 16.1525C16.6248 15.4389 17.464 14.8956 18.3938 14.5665C19.3235 14.2374 20.3177 14.1319 21.2958 14.2583C22.274 14.3847 23.2086 14.7396 24.0241 15.2943C24.2594 15.4542 24.4828 15.6296 24.6931 15.8188C25.553 16.5925 26.811 16.9975 27.8235 16.438Z" fill="#011627"/>
<path d="M57.5241 32.0405C56.3301 32.0405 55.2676 31.8482 54.3367 31.4637C53.4058 31.059 52.6267 30.5025 51.9993 29.7942C51.372 29.0656 50.8964 28.1853 50.5726 27.1532C50.2488 26.1211 50.0869 24.9676 50.0869 23.6926C50.0869 22.4177 50.2488 21.2743 50.5726 20.2624C50.8964 19.2303 51.372 18.35 51.9993 17.6215C52.6267 16.8929 53.4058 16.3364 54.3367 15.9519C55.2676 15.5674 56.3301 15.3751 57.5241 15.3751C59.1431 15.3751 60.4888 15.7394 61.5614 16.4679C62.6542 17.1965 63.4334 18.2185 63.8988 19.5339L60.2561 21.1124C60.1145 20.5053 59.821 19.9892 59.3758 19.5642C58.9306 19.1393 58.3133 18.9268 57.5241 18.9268C56.6134 18.9268 55.9254 19.2303 55.4599 19.8374C54.9944 20.4243 54.7617 21.2237 54.7617 22.2356V25.2104C54.7617 26.2223 54.9944 27.0217 55.4599 27.6085C55.9254 28.1954 56.6134 28.4889 57.5241 28.4889C58.3336 28.4889 58.9711 28.2764 59.4365 27.8514C59.9222 27.4062 60.2764 26.8294 60.499 26.1211L63.9899 27.6389C63.4637 29.1567 62.6441 30.2697 61.5311 30.978C60.4383 31.6863 59.1026 32.0405 57.5241 32.0405Z" fill="#011627"/>
<path d="M71.2328 31.6762C69.6948 31.6762 68.5615 31.3018 67.833 30.5531C67.1247 29.8043 66.7705 28.7216 66.7705 27.305V9.2129H71.2632V28.1853H73.2667V31.6762H71.2328Z" fill="#011627"/>
<path d="M78.2066 14.0395C77.2959 14.0395 76.6281 13.8371 76.2031 13.4324C75.7984 13.0074 75.596 12.4711 75.596 11.8235V11.1557C75.596 10.5081 75.7984 9.98191 76.2031 9.57717C76.6281 9.15219 77.2959 8.9397 78.2066 8.9397C79.1173 8.9397 79.775 9.15219 80.1797 9.57717C80.6047 9.98191 80.8172 10.5081 80.8172 11.1557V11.8235C80.8172 12.4711 80.6047 13.0074 80.1797 13.4324C79.775 13.8371 79.1173 14.0395 78.2066 14.0395ZM75.9603 15.7394H80.4529V31.6762H75.9603V15.7394Z" fill="#011627"/>
<path d="M91.0815 32.0405C89.8875 32.0405 88.8251 31.8482 87.8942 31.4637C86.9632 31.059 86.1841 30.5025 85.5568 29.7942C84.9294 29.0656 84.4538 28.1853 84.13 27.1532C83.8062 26.1211 83.6443 24.9676 83.6443 23.6926C83.6443 22.4177 83.8062 21.2743 84.13 20.2624C84.4538 19.2303 84.9294 18.35 85.5568 17.6215C86.1841 16.8929 86.9632 16.3364 87.8942 15.9519C88.8251 15.5674 89.8875 15.3751 91.0815 15.3751C92.7005 15.3751 94.0463 15.7394 95.1189 16.4679C96.2117 17.1965 96.9908 18.2185 97.4562 19.5339L93.8135 21.1124C93.6719 20.5053 93.3785 19.9892 92.9332 19.5642C92.488 19.1393 91.8708 18.9268 91.0815 18.9268C90.1708 18.9268 89.4828 19.2303 89.0173 19.8374C88.5519 20.4243 88.3191 21.2237 88.3191 22.2356V25.2104C88.3191 26.2223 88.5519 27.0217 89.0173 27.6085C89.4828 28.1954 90.1708 28.4889 91.0815 28.4889C91.891 28.4889 92.5285 28.2764 92.9939 27.8514C93.4796 27.4062 93.8338 26.8294 94.0564 26.1211L97.5473 27.6389C97.0212 29.1567 96.2015 30.2697 95.0885 30.978C93.9957 31.6863 92.66 32.0405 91.0815 32.0405Z" fill="#011627"/>
<path d="M100.328 9.2129H104.821V22.4784H105.003L106.976 19.5339L110.163 15.7394H115.142L109.829 21.8409L115.749 31.6762H110.406L106.824 24.9372L104.821 27.1836V31.6762H100.328V9.2129Z" fill="#011627"/>
<path d="M129.626 31.6762C128.816 31.6762 128.138 31.4233 127.592 30.9173C127.066 30.4114 126.732 29.7334 126.59 28.8835H126.408C126.165 29.9156 125.629 30.7048 124.799 31.2512C123.97 31.7774 122.948 32.0405 121.733 32.0405C120.135 32.0405 118.91 31.6155 118.06 30.7655C117.21 29.9156 116.785 28.7924 116.785 27.396C116.785 25.7164 117.392 24.4718 118.607 23.6623C119.841 22.8326 121.511 22.4177 123.615 22.4177H126.135V21.4159C126.135 20.6469 125.933 20.0398 125.528 19.5946C125.123 19.1291 124.445 18.8964 123.494 18.8964C122.604 18.8964 121.895 19.0887 121.369 19.4732C120.843 19.8577 120.408 20.2928 120.064 20.7785L117.392 18.4107C118.04 17.4596 118.85 16.7209 119.821 16.1947C120.813 15.6483 122.148 15.3751 123.828 15.3751C126.094 15.3751 127.794 15.8709 128.928 16.8626C130.061 17.8542 130.628 19.3012 130.628 21.2035V28.1853H132.115V31.6762H129.626ZM123.403 28.9138C124.152 28.9138 124.789 28.7519 125.315 28.4281C125.862 28.1043 126.135 27.5782 126.135 26.8496V24.9676H123.949C122.189 24.9676 121.308 25.5646 121.308 26.7586V27.2139C121.308 27.8008 121.49 28.2359 121.855 28.5192C122.219 28.7823 122.735 28.9138 123.403 28.9138Z" fill="#011627"/>
<path d="M135.13 9.2129H139.623V18.4107H139.775C139.998 17.5203 140.503 16.7917 141.293 16.2251C142.102 15.6585 143.023 15.3751 144.055 15.3751C146.079 15.3751 147.607 16.0834 148.639 17.5C149.671 18.9166 150.187 20.9808 150.187 23.6926C150.187 26.4044 149.671 28.4787 148.639 29.9156C147.607 31.3322 146.079 32.0405 144.055 32.0405C143.529 32.0405 143.033 31.9595 142.568 31.7976C142.102 31.656 141.677 31.4536 141.293 31.1905C140.928 30.9072 140.615 30.5834 140.352 30.2191C140.089 29.8346 139.896 29.4299 139.775 29.0049H139.623V31.6762H135.13V9.2129ZM142.568 28.3978C143.418 28.3978 144.116 28.1043 144.662 27.5175C145.229 26.9104 145.512 26.1009 145.512 25.089V22.3266C145.512 21.3148 145.229 20.5154 144.662 19.9285C144.116 19.3214 143.418 19.0178 142.568 19.0178C141.718 19.0178 141.009 19.2303 140.443 19.6553C139.896 20.0601 139.623 20.6267 139.623 21.3552V26.0604C139.623 26.7889 139.896 27.3657 140.443 27.7907C141.009 28.1954 141.718 28.3978 142.568 28.3978Z" fill="#011627"/>
<path d="M158.061 31.6762C156.523 31.6762 155.39 31.3018 154.661 30.5531C153.953 29.8043 153.599 28.7216 153.599 27.305V9.2129H158.092V28.1853H160.095V31.6762H158.061Z" fill="#011627"/>
<path d="M169.437 32.0405C168.222 32.0405 167.14 31.8482 166.189 31.4637C165.237 31.059 164.428 30.5025 163.76 29.7942C163.112 29.0656 162.617 28.1853 162.273 27.1532C161.949 26.1211 161.787 24.9676 161.787 23.6926C161.787 22.4379 161.949 21.3046 162.273 20.2928C162.596 19.2607 163.072 18.3804 163.699 17.6518C164.347 16.9233 165.136 16.3668 166.067 15.9823C166.998 15.5775 168.06 15.3751 169.254 15.3751C170.57 15.3751 171.693 15.5977 172.624 16.043C173.575 16.4882 174.344 17.0852 174.931 17.834C175.538 18.5827 175.973 19.4529 176.236 20.4446C176.52 21.4159 176.661 22.4379 176.661 23.5105V24.8462H166.431V25.089C166.431 26.1413 166.715 26.9812 167.281 27.6085C167.848 28.2157 168.738 28.5192 169.953 28.5192C170.884 28.5192 171.642 28.3371 172.229 27.9728C172.816 27.5883 173.363 27.133 173.869 26.6068L176.115 29.3995C175.407 30.2293 174.476 30.8769 173.322 31.3423C172.189 31.8078 170.894 32.0405 169.437 32.0405ZM169.346 18.6839C168.435 18.6839 167.716 18.9875 167.19 19.5946C166.684 20.1815 166.431 20.9707 166.431 21.9624V22.2052H172.017V21.932C172.017 20.9606 171.794 20.1815 171.349 19.5946C170.924 18.9875 170.256 18.6839 169.346 18.6839Z" fill="#011627"/>
</svg>
